<svg width="3860" height="2160" viewBox="0 0 3860 2160" fill="none" xmlns="http://www.w3.org/2000/svg">
<g clip-path="url(#clip0_966_38)">
<rect width="3860" height="2160" fill="url(#paint0_linear_966_38)"/>
<circle cx="347" cy="303" r="3" fill="#F6F6F6" fill-opacity="0.7"/>
<circle cx="36.5" cy="322.5" r="1.5" fill="#F6F6F6" fill-opacity="0.7"/>
<circle cx="82.5" cy="392.5" r="1.5" fill="#F6F6F6" fill-opacity="0.7"/>
<circle cx="319.5" cy="653.5" r="1.5" fill="#F6F6F6" fill-opacity="0.3"/>
<circle cx="320.5" cy="373.5" r="1.5" fill="#F6F6F6" fill-opacity="0.7"/>
<circle cx="344" cy="397" r="3" fill="#F6F6F6" fill-opacity="0.7"/>
<circle cx="32" cy="526" r="3" fill="#F6F6F6" fill-opacity="0.7"/>
<circle cx="88.5" cy="457.5" r="1.5" fill="#F6F6F6" fill-opacity="0.7"/>
<circle cx="326.5" cy="438.5" r="1.5" fill="#F6F6F6" fill-opacity="0.7"/>
<circle cx="350" cy="462" r="3" fill="#F6F6F6" fill-opacity="0.7"/>
<circle cx="38" cy="591" r="3" fill="#F6F6F6" fill-opacity="0.7"/>
<ellipse cx="2.15411" cy="2.16538" rx="2.15411" ry="2.16538" transform="matrix(-0.320826 0.947138 -0.317073 -0.948401 208.947 964.402)" fill="#F6F6F6" fill-opacity="0.7"/>
<ellipse cx="1.07706" cy="1.08269" rx="1.07706" ry="1.08269" transform="matrix(-0.320826 0.947138 -0.317073 -0.948401 275.324 739.883)" fill="#F6F6F6" fill-opacity="0.7"/>
<ellipse cx="1.07706" cy="1.08269" rx="1.07706" ry="1.08269" transform="matrix(-0.320826 0.947138 -0.317073 -0.948401 248.707 723.248)" fill="#F6F6F6" fill-opacity="0.7"/>
<ellipse cx="1.07706" cy="1.08269" rx="1.07706" ry="1.08269" transform="matrix(-0.320826 0.947138 -0.317073 -0.948401 134.377 705.76)" fill="#F6F6F6" fill-opacity="0.3"/>
<ellipse cx="1.07706" cy="1.08269" rx="1.07706" ry="1.08269" transform="matrix(-0.320826 0.947138 -0.317073 -0.948401 198.228 898.113)" fill="#F6F6F6" fill-opacity="0.7"/>
<ellipse cx="2.15411" cy="2.16538" rx="2.15411" ry="2.16538" transform="matrix(-0.320826 0.947138 -0.317073 -0.948401 188.125 898.016)" fill="#F6F6F6" fill-opacity="0.7"/>
<ellipse cx="2.15411" cy="2.16538" rx="2.15411" ry="2.16538" transform="matrix(-0.320826 0.947138 -0.317073 -0.948401 230.476 597.523)" fill="#F6F6F6" fill-opacity="0.7"/>
<ellipse cx="1.07706" cy="1.08269" rx="1.07706" ry="1.08269" transform="matrix(-0.320826 0.947138 -0.317073 -0.948401 232.448 682.832)" fill="#F6F6F6" fill-opacity="0.7"/>
<ellipse cx="1.07706" cy="1.08269" rx="1.07706" ry="1.08269" transform="matrix(-0.320826 0.947138 -0.317073 -0.948401 181.97 857.697)" fill="#F6F6F6" fill-opacity="0.7"/>
<ellipse cx="2.15411" cy="2.16538" rx="2.15411" ry="2.16538" transform="matrix(-0.320826 0.947138 -0.317073 -0.948401 171.867 857.6)" fill="#F6F6F6" fill-opacity="0.7"/>
<ellipse cx="2.15411" cy="2.16538" rx="2.15411" ry="2.16538" transform="matrix(-0.320826 0.947138 -0.317073 -0.948401 214.218 557.107)" fill="#F6F6F6" fill-opacity="0.7"/>
<circle cx="1712" cy="509" r="3" fill="#F6F6F6" fill-opacity="0.7"/>
<circle cx="1401.5" cy="528.5" r="1.5" fill="#F6F6F6" fill-opacity="0.7"/>
<circle cx="1447.5" cy="598.5" r="1.5" fill="#F6F6F6" fill-opacity="0.7"/>
<circle cx="1684.5" cy="859.5" r="1.5" fill="#F6F6F6" fill-opacity="0.3"/>
<circle cx="1685.5" cy="579.5" r="1.5" fill="#F6F6F6" fill-opacity="0.7"/>
<circle cx="1709" cy="603" r="3" fill="#F6F6F6" fill-opacity="0.7"/>
<circle cx="1397" cy="732" r="3" fill="#F6F6F6" fill-opacity="0.7"/>
<circle cx="1453.5" cy="663.5" r="1.5" fill="#F6F6F6" fill-opacity="0.7"/>
<circle cx="1691.5" cy="644.5" r="1.5" fill="#F6F6F6" fill-opacity="0.7"/>
<circle cx="1715" cy="668" r="3" fill="#F6F6F6" fill-opacity="0.7"/>
<circle cx="1403" cy="797" r="3" fill="#F6F6F6" fill-opacity="0.7"/>
<circle cx="636.832" cy="557.123" r="3" transform="rotate(-150.905 636.832 557.123)" fill="#F6F6F6" fill-opacity="0.7"/>
<circle cx="917.634" cy="691.068" r="1.5" transform="rotate(-150.905 917.634 691.068)" fill="#F6F6F6" fill-opacity="0.7"/>
<circle cx="911.476" cy="607.533" r="1.5" transform="rotate(-150.905 911.476 607.533)" fill="#F6F6F6" fill-opacity="0.7"/>
<circle cx="831.297" cy="264.225" r="1.5" transform="rotate(-150.905 831.297 264.225)" fill="#F6F6F6" fill-opacity="0.3"/>
<circle cx="694.27" cy="508.405" r="1.5" transform="rotate(-150.905 694.27 508.405)" fill="#F6F6F6" fill-opacity="0.7"/>
<circle cx="685.163" cy="476.444" r="3" transform="rotate(-150.905 685.163 476.444)" fill="#F6F6F6" fill-opacity="0.7"/>
<circle cx="1020.52" cy="515.435" r="3" transform="rotate(-150.905 1020.52 515.435)" fill="#F6F6F6" fill-opacity="0.7"/>
<circle cx="937.841" cy="547.818" r="1.5" transform="rotate(-150.905 937.841 547.818)" fill="#F6F6F6" fill-opacity="0.7"/>
<circle cx="720.634" cy="448.69" r="1.5" transform="rotate(-150.905 720.634 448.69)" fill="#F6F6F6" fill-opacity="0.7"/>
<circle cx="711.527" cy="416.728" r="3" transform="rotate(-150.905 711.527 416.728)" fill="#F6F6F6" fill-opacity="0.7"/>
<circle cx="1046.88" cy="455.721" r="3" transform="rotate(-150.905 1046.88 455.721)" fill="#F6F6F6" fill-opacity="0.7"/>
<ellipse cx="1389.5" cy="637" rx="1.5" ry="3" fill="#F6F6F6" fill-opacity="0.7"/>
<ellipse cx="1238.5" cy="654.5" rx="0.5" ry="1.5" fill="#F6F6F6" fill-opacity="0.7"/>
<ellipse cx="1261" cy="717.5" rx="1" ry="1.5" fill="#F6F6F6" fill-opacity="0.7"/>
<ellipse cx="1376" cy="951.5" rx="1" ry="1.5" fill="#F6F6F6" fill-opacity="0.3"/>
<ellipse cx="1376.5" cy="700.5" rx="0.5" ry="1.5" fill="#F6F6F6" fill-opacity="0.7"/>
<ellipse cx="1387.5" cy="721.5" rx="1.5" ry="2.5" fill="#F6F6F6" fill-opacity="0.7"/>
<ellipse cx="1236.5" cy="837.5" rx="1.5" ry="2.5" fill="#F6F6F6" fill-opacity="0.7"/>
<ellipse cx="1264" cy="775.5" rx="1" ry="1.5" fill="#F6F6F6" fill-opacity="0.7"/>
<ellipse cx="1379" cy="758.5" rx="1" ry="1.5" fill="#F6F6F6" fill-opacity="0.7"/>
<ellipse cx="1390.5" cy="779.5" rx="1.5" ry="2.5" fill="#F6F6F6" fill-opacity="0.7"/>
<ellipse cx="1239.5" cy="895.5" rx="1.5" ry="2.5" fill="#F6F6F6" fill-opacity="0.7"/>
<circle cx="690" cy="750" r="3" fill="#F6F6F6" fill-opacity="0.7"/>
<circle cx="379.5" cy="769.5" r="1.5" fill="#F6F6F6" fill-opacity="0.7"/>
<circle cx="425.5" cy="839.5" r="1.5" fill="#F6F6F6" fill-opacity="0.7"/>
<circle cx="662.5" cy="1100.5" r="1.5" fill="#F6F6F6" fill-opacity="0.3"/>
<circle cx="663.5" cy="820.5" r="1.5" fill="#F6F6F6" fill-opacity="0.7"/>
<circle cx="687" cy="844" r="3" fill="#F6F6F6" fill-opacity="0.7"/>
<circle cx="375" cy="973" r="3" fill="#F6F6F6" fill-opacity="0.7"/>
<circle cx="431.5" cy="904.5" r="1.5" fill="#F6F6F6" fill-opacity="0.7"/>
<circle cx="669.5" cy="885.5" r="1.5" fill="#F6F6F6" fill-opacity="0.7"/>
<circle cx="693" cy="909" r="3" fill="#F6F6F6" fill-opacity="0.7"/>
<circle cx="381" cy="1038" r="3" fill="#F6F6F6" fill-opacity="0.7"/>
<circle cx="1235" cy="262" r="3" fill="#F6F6F6" fill-opacity="0.7"/>
<circle cx="924.5" cy="281.5" r="1.5" fill="#F6F6F6" fill-opacity="0.7"/>
<circle cx="970.5" cy="351.5" r="1.5" fill="#F6F6F6" fill-opacity="0.7"/>
<ellipse cx="1206.5" cy="612.5" rx="0.5" ry="1.5" fill="#F6F6F6" fill-opacity="0.3"/>
<circle cx="1208.5" cy="332.5" r="1.5" fill="#F6F6F6" fill-opacity="0.7"/>
<circle cx="1232" cy="356" r="3" fill="#F6F6F6" fill-opacity="0.7"/>
<circle cx="920" cy="485" r="3" fill="#F6F6F6" fill-opacity="0.7"/>
<circle cx="976.5" cy="416.5" r="1.5" fill="#F6F6F6" fill-opacity="0.7"/>
<circle cx="1214.5" cy="397.5" r="1.5" fill="#F6F6F6" fill-opacity="0.7"/>
<circle cx="1238" cy="421" r="3" fill="#F6F6F6" fill-opacity="0.7"/>
<circle cx="926" cy="550" r="3" fill="#F6F6F6" fill-opacity="0.7"/>
<circle cx="852.99" cy="586.638" r="3" transform="rotate(46.1769 852.99 586.638)" fill="#F6F6F6" fill-opacity="0.7"/>
<circle cx="623.921" cy="376.121" r="1.5" transform="rotate(46.1769 623.921 376.121)" fill="#F6F6F6" fill-opacity="0.7"/>
<circle cx="605.269" cy="457.779" r="1.5" transform="rotate(46.1769 605.269 457.779)" fill="#F6F6F6" fill-opacity="0.7"/>
<circle cx="581.07" cy="809.496" r="1.5" transform="rotate(46.1769 581.07 809.496)" fill="#F6F6F6" fill-opacity="0.3"/>
<circle cx="783.777" cy="616.336" r="1.5" transform="rotate(46.1769 783.777 616.336)" fill="#F6F6F6" fill-opacity="0.7"/>
<circle cx="783.094" cy="649.562" r="3" transform="rotate(46.1769 783.094 649.562)" fill="#F6F6F6" fill-opacity="0.7"/>
<circle cx="473.983" cy="513.785" r="3" transform="rotate(46.1769 473.983 513.785)" fill="#F6F6F6" fill-opacity="0.7"/>
<circle cx="562.527" cy="507.117" r="1.5" transform="rotate(46.1769 562.527 507.117)" fill="#F6F6F6" fill-opacity="0.7"/>
<circle cx="741.035" cy="665.673" r="1.5" transform="rotate(46.1769 741.035 665.673)" fill="#F6F6F6" fill-opacity="0.7"/>
<circle cx="740.352" cy="698.9" r="3" transform="rotate(46.1769 740.352 698.9)" fill="#F6F6F6" fill-opacity="0.7"/>
<circle cx="431.242" cy="563.122" r="3" transform="rotate(46.1769 431.242 563.122)" fill="#F6F6F6" fill-opacity="0.7"/>
<ellipse cx="2.34591" cy="1.84604" rx="2.34591" ry="1.84604" transform="matrix(0.963916 -0.266208 0.883061 0.469258 1485.43 222.782)" fill="#F6F6F6" fill-opacity="0.7"/>
<ellipse cx="1.17296" cy="0.923018" rx="1.17296" ry="0.923018" transform="matrix(0.963916 -0.266208 0.883061 0.469258 1263.94 293.17)" fill="#F6F6F6" fill-opacity="0.7"/>
<ellipse cx="1.17296" cy="0.923018" rx="1.17296" ry="0.923018" transform="matrix(0.963916 -0.266208 0.883061 0.469258 1336.65 303.807)" fill="#F6F6F6" fill-opacity="0.7"/>
<ellipse cx="1.17296" cy="0.923018" rx="1.17296" ry="0.923018" transform="matrix(0.963916 -0.266208 0.883061 0.469258 1657.11 329.837)" fill="#F6F6F6" fill-opacity="0.3"/>
<ellipse cx="1.17296" cy="0.923018" rx="1.17296" ry="0.923018" transform="matrix(0.963916 -0.266208 0.883061 0.469258 1505.71 248.777)" fill="#F6F6F6" fill-opacity="0.7"/>
<ellipse cx="2.34591" cy="1.84604" rx="2.34591" ry="1.84604" transform="matrix(0.963916 -0.266208 0.883061 0.469258 1534.25 250.55)" fill="#F6F6F6" fill-opacity="0.7"/>
<ellipse cx="2.34591" cy="1.84604" rx="2.34591" ry="1.84604" transform="matrix(0.963916 -0.266208 0.883061 0.469258 1369.18 352.747)" fill="#F6F6F6" fill-opacity="0.7"/>
<ellipse cx="1.17296" cy="0.923018" rx="1.17296" ry="0.923018" transform="matrix(0.963916 -0.266208 0.883061 0.469258 1376.49 321.327)" fill="#F6F6F6" fill-opacity="0.7"/>
<ellipse cx="1.17296" cy="0.923018" rx="1.17296" ry="0.923018" transform="matrix(0.963916 -0.266208 0.883061 0.469258 1545.56 266.297)" fill="#F6F6F6" fill-opacity="0.7"/>
<ellipse cx="2.34591" cy="1.84604" rx="2.34591" ry="1.84604" transform="matrix(0.963916 -0.266208 0.883061 0.469258 1574.09 268.069)" fill="#F6F6F6" fill-opacity="0.7"/>
<ellipse cx="2.34591" cy="1.84604" rx="2.34591" ry="1.84604" transform="matrix(0.963916 -0.266208 0.883061 0.469258 1409.02 370.268)" fill="#F6F6F6" fill-opacity="0.7"/>
</g>
<defs>
<linearGradient id="paint0_linear_966_38" x1="2664.47" y1="-8.00005e-06" x2="2570.98" y2="2216.66" gradientUnits="userSpaceOnUse">
<stop offset="0.213542" stop-color="#0B101D"/>
<stop offset="0.536458" stop-color="#49254F"/>
<stop offset="1" stop-color="#A14061"/>
</linearGradient>
<clipPath id="clip0_966_38">
<rect width="3860" height="2160" fill="white"/>
</clipPath>
</defs>
</svg>
